<svg xmlns="http://www.w3.org/2000/svg" xmlns:xlink="http://www.w3.org/1999/xlink" viewBox="0 0 28 28"><defs><style>.cls-1{fill:#fff;}.cls-2{fill:#e8f5e9;}.cls-3{fill:#64dd17;}.cls-4{mask:url(#mask);}</style><mask id="mask" x="4" y="4" width="20" height="20" maskUnits="userSpaceOnUse"><g id="mask-2"><path id="path-1" class="cls-1" d="M14,4A10,10,0,1,0,24,14,10,10,0,0,0,14,4m0,18a8,8,0,1,1,8-8,8,8,0,0,1-8,8m2.29-10.71L13,14.59l-1.29-1.29a1,1,0,0,0-1.41,1.41l2,2a1,1,0,0,0,1.41,0l4-4a1,1,0,0,0-1.41-1.41"/></g></mask></defs><title>Asset 1</title><g id="Layer_2" data-name="Layer 2"><g id="Layer_1-2" data-name="Layer 1"><g id="Symbols"><g id="Banners-_-03-Resources-_-Status-_-In-card-_-03-Success" data-name="Banners-/-03-Resources-/-Status-/-In-card-/-03-Success"><g id="Icon"><circle id="Icon-BG" class="cls-2" cx="14" cy="14" r="14"/><g id="Polaris-icon_Major_2-Tone_Circle-Tick" data-name="Polaris-icon/Major/2-Tone/Circle-Tick"><circle id="Fill" class="cls-1" cx="14" cy="14" r="9"/><g id="Icon-2" data-name="Icon"><g id="Mask-2-2" data-name="Mask"><path id="path-1-2" data-name="path-1" class="cls-3" d="M14,4A10,10,0,1,0,24,14,10,10,0,0,0,14,4m0,18a8,8,0,1,1,8-8,8,8,0,0,1-8,8m2.29-10.71L13,14.59l-1.29-1.29a1,1,0,0,0-1.41,1.41l2,2a1,1,0,0,0,1.41,0l4-4a1,1,0,0,0-1.41-1.41"/></g></g></g></g></g></g></g></g></svg>