<svg xmlns="http://www.w3.org/2000/svg" xmlns:xlink="http://www.w3.org/1999/xlink" viewBox="0 0 28 28"><defs><style>.cls-1{fill:#fff;}.cls-2{fill:#eceff1;}.cls-3{fill:#b0bec5;}.cls-4{mask:url(#mask);}</style><mask id="mask" x="4" y="4" width="20" height="20" maskUnits="userSpaceOnUse"><g id="mask-2"><path id="path-1" class="cls-1" d="M6,14A8,8,0,0,1,7.69,9.1L18.9,20.31A8,8,0,0,1,6,14m14.31,4.9L9.1,7.69A8,8,0,0,1,20.31,18.9M4,14A10,10,0,1,0,14,4,10,10,0,0,0,4,14"/></g></mask></defs><title>1</title><g id="Layer_2" data-name="Layer 2"><g id="Layer_1-2" data-name="Layer 1"><g id="Symbols"><g id="Banners-_-03-Resources-_-Status-_-In-card-_-05-Critical" data-name="Banners-/-03-Resources-/-Status-/-In-card-/-05-Critical"><g id="Icon"><circle id="Icon-BG" class="cls-2" cx="14" cy="14" r="14"/><g id="Polaris-icon_Major_2-Tone_Circle-Disabled" data-name="Polaris-icon/Major/2-Tone/Circle-Disabled"><circle id="Fill" class="cls-1" cx="14" cy="14" r="9"/><g id="Icon-2" data-name="Icon"><g id="Mask-2-2" data-name="Mask"><path id="path-1-2" data-name="path-1" class="cls-3" d="M6,14A8,8,0,0,1,7.69,9.1L18.9,20.31A8,8,0,0,1,6,14m14.31,4.9L9.1,7.69A8,8,0,0,1,20.31,18.9M4,14A10,10,0,1,0,14,4,10,10,0,0,0,4,14"/></g></g></g></g></g></g></g></g></svg>